<svg width="11" height="16" viewBox="0 0 11 16" fill="none" xmlns="http://www.w3.org/2000/svg">
<path d="M0.785745 0H10.2143C10.4227 0 10.6226 0.0816576 10.7699 0.227009C10.9173 0.372361 11 0.569499 11 0.775057V15.612C11.0001 15.6813 10.9814 15.7493 10.9457 15.809C10.9101 15.8688 10.8589 15.918 10.7974 15.9515C10.736 15.9851 10.6665 16.0018 10.5963 15.9999C10.5261 15.9979 10.4577 15.9775 10.3982 15.9406L5.50003 12.4242L0.601887 15.9398C0.542462 15.9767 0.474121 15.9971 0.403968 15.9991C0.333815 16.001 0.264412 15.9844 0.202977 15.9509C0.141541 15.9175 0.0903144 15.8684 0.0546241 15.8088C0.0189339 15.7492 8.27447e-05 15.6812 3.05176e-05 15.612V0.775057C3.05176e-05 0.569499 0.082811 0.372361 0.230161 0.227009C0.377511 0.0816576 0.57736 0 0.785745 0ZM9.4286 1.55011H1.57146V13.5108L5.50003 10.5958L9.4286 13.5108V1.55011Z" fill="#CD91E2" fill-opacity="0.47"/>
</svg>
