<svg width="24" height="24" viewBox="0 0 24 24" fill="none" xmlns="http://www.w3.org/2000/svg">
<path d="M3.75 16.2656C3.75 13.3842 5.75002 10.9702 8.4375 10.3352C7.98605 10.2286 7.51528 10.1719 7.03125 10.1719C3.66577 10.1719 0.9375 12.9001 0.9375 16.2656C0.9375 19.6311 3.66577 22.3594 7.03125 22.3594C7.51528 22.3594 7.98605 22.3027 8.4375 22.196C5.75002 21.5611 3.75 19.1471 3.75 16.2656Z" fill="#C6E1F2"/>
<path d="M7.03125 23.2969C3.15422 23.2969 0 20.1427 0 16.2656C0 12.3886 3.15422 9.23438 7.03125 9.23438C10.9083 9.23438 14.0625 12.3886 14.0625 16.2656C14.0625 20.1427 10.9083 23.2969 7.03125 23.2969ZM7.03125 11.1094C4.18809 11.1094 1.875 13.4225 1.875 16.2656C1.875 19.1088 4.18809 21.4219 7.03125 21.4219C9.87441 21.4219 12.1875 19.1088 12.1875 16.2656C12.1875 13.4225 9.87441 11.1094 7.03125 11.1094ZM7.03125 19.0781C5.48044 19.0781 4.21875 17.8164 4.21875 16.2656C4.21875 14.7148 5.48044 13.4531 7.03125 13.4531C8.58206 13.4531 9.84375 14.7148 9.84375 16.2656C9.84375 17.8164 8.58206 19.0781 7.03125 19.0781ZM7.03125 15.3281C6.51431 15.3281 6.09375 15.7487 6.09375 16.2656C6.09375 16.7826 6.51431 17.2031 7.03125 17.2031C7.54819 17.2031 7.96875 16.7826 7.96875 16.2656C7.96875 15.7487 7.54819 15.3281 7.03125 15.3281ZM24 16.2656C24 12.3886 20.8458 9.23438 16.9688 9.23438C16.1323 9.23438 15.3134 9.38002 14.5348 9.66731C14.0491 9.84656 13.8006 10.3856 13.9798 10.8714C14.1591 11.3572 14.6982 11.6056 15.1839 11.4264C15.754 11.216 16.3545 11.1094 16.9688 11.1094C19.8119 11.1094 22.125 13.4225 22.125 16.2656C22.125 19.1088 19.8119 21.4219 16.9688 21.4219C16.3834 21.4219 15.8095 21.3248 15.2631 21.1334C14.7745 20.9622 14.2395 21.2195 14.0684 21.7081C13.8972 22.1968 14.1545 22.7317 14.6431 22.9029C15.3892 23.1643 16.1717 23.2969 16.9688 23.2969C20.8458 23.2969 24 20.1427 24 16.2656ZM6.86925 7.21762C7.13184 4.57266 9.33759 2.57812 12 2.57812C14.6419 2.57812 16.8459 4.55564 17.1266 7.17792C17.1818 7.6927 17.6441 8.06536 18.1586 8.01028C18.6735 7.95516 19.0462 7.49311 18.991 6.97828C18.8074 5.26322 17.9988 3.67903 16.7144 2.51761C15.4202 1.34756 13.746 0.703125 12 0.703125C10.2446 0.703125 8.5635 1.35366 7.26661 2.53495C5.97862 3.70805 5.17491 5.30527 5.00344 7.03238C4.9523 7.54763 5.32852 8.00677 5.84377 8.05791C5.87527 8.061 5.90648 8.06255 5.93752 8.06255C6.41348 8.06255 6.82125 7.70133 6.86925 7.21762ZM13.9583 8.47978C14.4736 8.42864 14.8498 7.96945 14.7987 7.45425C14.6553 6.01055 13.4521 4.92188 12 4.92188C10.584 4.92188 9.38419 5.98036 9.2092 7.38403C9.14517 7.89778 9.50972 8.36625 10.0235 8.43028C10.5377 8.49469 11.0058 8.12977 11.0698 7.61597C11.128 7.149 11.5279 6.79688 12 6.79688C12.4841 6.79688 12.8851 7.15912 12.9328 7.6395C12.9808 8.12325 13.3885 8.48442 13.8646 8.48442C13.8956 8.48442 13.9269 8.48292 13.9583 8.47978Z" fill="#9A2BC2"/>
<path d="M16.97 19.0786C16.6151 19.0786 16.2571 19.0113 15.9144 18.8729C15.4343 18.679 15.2023 18.1326 15.3963 17.6525C15.5902 17.1724 16.1367 16.9406 16.6166 17.1344C16.9667 17.2758 17.365 17.1949 17.6315 16.9283C17.9971 16.5628 17.9971 15.968 17.6315 15.6024C17.365 15.3359 16.9666 15.255 16.6166 15.3964C16.1365 15.5903 15.5902 15.3583 15.3963 14.8782C15.2023 14.3981 15.4343 13.8518 15.9144 13.6578C16.9633 13.2341 18.1578 13.477 18.9574 14.2766C20.054 15.3732 20.054 17.1575 18.9574 18.2541C18.419 18.7925 17.7015 19.0786 16.97 19.0786Z" fill="#FF5CF4"/>
</svg>
