<svg width="24" height="24" viewBox="0 0 24 24" fill="none" xmlns="http://www.w3.org/2000/svg">
<g clip-path="url(#clip0)">
<g opacity="0.2">
<path d="M24.9206 -2H-0.324445C-1.24823 -2 -2 -1.24823 -2 -0.324445V16.3194C-2 17.2432 -1.24823 17.995 -0.324445 17.995H24.9206C25.8444 17.995 26.5961 17.2432 26.5961 16.3194V-0.324445C26.5961 -1.24823 25.8444 -2 24.9206 -2Z" fill="#9A2BC2"/>
<path d="M21.2343 22.2812H16.7103V19.8237H7.88576V22.2812H3.36176C2.89931 22.2812 2.52399 22.6565 2.52399 23.119C2.52399 23.5814 2.89931 23.9568 3.36176 23.9568H21.2343C21.6968 23.9568 22.0721 23.5814 22.0721 23.119C22.0721 22.6565 21.6968 22.2812 21.2343 22.2812Z" fill="#9A2BC2"/>
</g>
<path d="M8.34784 5.21729V13.6916L15.7629 9.45443L8.34784 5.21729Z" fill="#9A2BC2"/>
</g>
<defs>
<clipPath id="clip0">
<rect width="24" height="24" fill="white"/>
</clipPath>
</defs>
</svg>
