<svg width="24" height="24" viewBox="0 0 24 24" fill="none" xmlns="http://www.w3.org/2000/svg">
<path opacity="0.5" d="M14.1094 0V3.5625H12.7031C11.9265 3.5625 11.2969 4.19208 11.2969 4.96875C11.2969 5.74542 11.9265 6.375 12.7031 6.375H14.1094V9.89062H18.3281V7.78125C18.3281 7.39331 18.6433 7.07812 19.0312 7.07812C19.4192 7.07812 19.7344 7.39331 19.7344 7.78125V9.89062H24V0H14.1094Z" fill="#9A2BC2"/>
<path opacity="0.7" d="M3.1875 14.8125C3.1875 15.5892 3.81708 16.2188 4.59375 16.2188C5.37042 16.2188 6 15.5892 6 14.8125V13.4062H9.1875V9.89062H7.78125C7.39294 9.89062 7.07812 9.57581 7.07812 9.1875C7.07812 8.79919 7.39294 8.48438 7.78125 8.48438H9.1875V4.26562H0V13.4062H3.1875V14.8125Z" fill="#9A2BC2"/>
<path opacity="0.8" d="M16.5938 14.8125V13.4062C16.5938 12.6296 15.9642 12 15.1875 12C14.4108 12 13.7812 12.6296 13.7812 13.4062V14.8125H10.5938V16.5938C12.1449 16.5938 13.4062 17.8551 13.4062 19.4062C13.4062 20.9574 12.1449 22.2188 10.5938 22.2188V24H19.7344V14.8125H16.5938Z" fill="#9A2BC2"/>
<path opacity="0.2" d="M10.5938 20.8125C11.3704 20.8125 12 20.1829 12 19.4062C12 18.6296 11.3704 18 10.5938 18H9.1875V14.8125H7.40625C7.40625 16.3636 6.14489 17.625 4.59375 17.625C3.04261 17.625 1.78125 16.3636 1.78125 14.8125H0V24H9.1875V20.8125H10.5938Z" fill="#9A2BC2"/>
</svg>
